<svg width="135" height="138" viewBox="0 0 135 138" fill="none" xmlns="http://www.w3.org/2000/svg">
<path d="M134.046 68.7201C134.046 103.426 108.989 132.118 76.441 136.775C73.3966 137.211 70.2828 137.436 67.1228 137.436C63.4733 137.436 59.8933 137.135 56.4018 136.558C24.5396 131.291 0.199707 102.92 0.199707 68.7161C0.199707 30.7652 30.1621 0 67.1228 0C104.083 0 134.046 30.7652 134.046 68.7161V68.7201Z" fill="#2188F7"/>
<path d="M106.677 43.546C104.82 45.4731 102.245 46.6641 99.3936 46.6641C99.0313 46.6641 98.6692 46.6443 98.3185 46.6047C101.294 44.7727 103.59 41.9039 104.735 38.4812C104.735 38.4812 104.739 38.4812 104.739 38.4772C104.897 38.0182 105.032 37.5552 105.139 37.0764C102.785 39.6603 99.567 41.4093 95.9561 41.8248C95.4012 41.892 94.8386 41.9237 94.2683 41.9237C94.0871 41.9237 93.9137 41.9197 93.7403 41.9079C92.5186 40.5902 91.062 39.502 89.4473 38.7027C87.6476 37.8006 85.6359 37.2703 83.5126 37.2031C83.3391 37.1912 83.1658 37.1872 82.9847 37.1872C81.185 37.1872 79.4585 37.5157 77.8631 38.1211C77.4546 38.2754 77.0576 38.4416 76.6684 38.6355C71.6124 41.069 68.1133 46.3436 68.1133 52.457C68.1133 53.7114 68.2636 54.9301 68.5372 56.0935C66.988 56.0302 65.4542 55.8758 63.9513 55.6463C63.4696 55.5672 62.9879 55.4841 62.51 55.3891C58.6756 54.6571 55.0185 53.3988 51.6195 51.6894C48.579 50.162 45.7426 48.2785 43.1645 46.0864C40.9949 44.2504 39.0102 42.2007 37.2375 39.9611C37.1605 39.8661 37.0834 39.7672 37.0102 39.6722C36.9061 39.8344 36.8098 39.9967 36.725 40.1668C35.4841 42.3946 34.7827 44.9705 34.7827 47.7166C34.7827 47.7997 34.7827 47.8907 34.7866 47.9738C34.8174 50.0314 35.2413 51.9901 36.0005 53.7707C36.3242 54.5621 36.7173 55.31 37.1682 56.0183C38.4977 58.1194 40.3128 59.8684 42.4554 61.0792C42.5518 61.1425 42.652 61.1939 42.7522 61.2414C42.598 61.2731 42.44 61.3008 42.282 61.3166C41.8427 61.376 41.3879 61.4076 40.9332 61.4076C38.6518 61.4076 36.5285 60.6756 34.7905 59.4292C34.7789 59.5597 34.7789 59.6943 34.7789 59.8288C34.7789 64.1893 36.5593 68.1225 39.411 70.8963C41.6307 73.0727 44.5017 74.5328 47.6926 74.9601C46.5442 75.3914 45.3033 75.6249 44.0123 75.6249C42.6135 75.6249 41.2724 75.3519 40.0469 74.8493C41.8735 80.947 47.3188 85.4183 53.8084 85.6161C49.8429 89.8461 44.2744 92.4735 38.1123 92.4735C34.2818 92.4735 30.6824 91.4566 27.5609 89.6759C35.0641 96.3434 44.8486 100.372 55.5503 100.372C79.2003 100.372 98.3685 80.6898 98.3685 56.4061C98.3685 55.0686 98.3108 53.747 98.1951 52.4412C102.107 50.8545 105.209 47.6138 106.677 43.55V43.546Z" fill="white"/>
</svg>
