<?xml version="1.0" standalone="no"?>
<!DOCTYPE svg PUBLIC "-//W3C//DTD SVG 20010904//EN"
 "http://www.w3.org/TR/2001/REC-SVG-20010904/DTD/svg10.dtd">
<svg version="1.0" xmlns="http://www.w3.org/2000/svg"
 width="1080.000000pt" height="1350.000000pt" viewBox="0 0 1080.000000 1350.000000"
 preserveAspectRatio="xMidYMid meet">

<g transform="translate(0.000000,1350.000000) scale(0.100000,-0.100000)"
fill="#000000" stroke="none">
<path d="M5169 10749 c-2 -10 -67 -834 -66 -836 1 -1 42 -3 92 -5 l90 -3 16
215 c9 118 18 226 20 239 3 17 32 -31 108 -180 57 -112 105 -205 106 -206 1
-2 21 -5 46 -8 l44 -6 135 194 c74 107 136 190 137 183 2 -6 -5 -116 -15 -244
-10 -129 -15 -235 -12 -237 3 -1 44 -6 93 -10 l87 -7 0 39 c0 21 14 209 29
418 16 209 29 381 28 381 -1 1 -38 3 -82 5 l-79 4 -168 -240 c-93 -132 -172
-241 -176 -243 -4 -1 -68 119 -142 268 -133 267 -135 270 -166 270 -17 0 -52
3 -78 6 -25 4 -46 5 -47 3z"/>
<path d="M6393 10326 c-91 -29 -157 -88 -200 -181 -38 -81 -39 -194 -3 -270
34 -69 99 -131 178 -168 62 -30 75 -32 172 -32 98 0 109 2 159 30 61 34 110
89 143 161 34 74 33 201 -4 269 -81 153 -285 241 -445 191z m203 -167 c64 -30
87 -74 82 -153 -7 -111 -72 -180 -170 -179 -121 2 -192 122 -143 240 43 102
135 139 231 92z"/>
<path d="M7012 9941 c-128 -202 -232 -372 -232 -377 1 -5 33 -29 71 -53 l71
-44 24 29 c21 26 23 27 24 8 0 -27 52 -104 87 -130 76 -56 114 -69 208 -69 81
0 95 3 143 29 156 87 230 288 161 437 -51 109 -158 182 -266 183 -60 1 -61 2
-49 21 93 144 147 238 140 245 -15 14 -137 90 -144 90 -4 0 -111 -166 -238
-369z m329 -146 c92 -60 90 -199 -4 -282 -67 -59 -161 -53 -224 13 -77 82 -43
225 67 282 54 28 106 24 161 -13z"/>
<path d="M3558 10115 c-30 -22 -56 -54 -74 -91 l-27 -55 -20 30 -19 31 -70
-37 c-39 -21 -72 -43 -75 -49 -3 -8 284 -531 304 -554 5 -5 152 70 159 82 2 4
-34 75 -81 159 -47 84 -88 167 -91 185 -12 62 23 121 99 169 l27 18 -36 66
c-20 36 -40 69 -44 74 -3 4 -27 -8 -52 -28z"/>
<path d="M4250 9933 c-55 -38 -69 -81 -44 -142 34 -85 144 -96 201 -21 34 45
13 139 -38 165 -37 20 -89 19 -119 -2z"/>
<path d="M7953 9795 c-12 -8 -27 -31 -33 -50 -10 -30 -9 -41 7 -72 41 -85 130
-105 187 -42 24 27 27 38 23 73 -8 59 -61 106 -120 106 -23 0 -52 -7 -64 -15z"/>
<path d="M2959 9717 c-70 -29 -105 -54 -154 -108 -60 -67 -80 -120 -80 -219 0
-79 3 -90 36 -150 117 -212 365 -237 556 -58 59 56 113 151 113 200 0 24 -4
27 -52 33 -29 3 -61 9 -70 11 -13 4 -20 -5 -29 -36 -26 -87 -119 -160 -203
-160 -45 0 -99 17 -94 31 2 3 84 73 183 154 99 81 181 151 183 156 6 16 -93
111 -143 137 -73 37 -171 41 -246 9z m168 -154 l25 -17 -25 -20 c-181 -149
-218 -177 -226 -172 -15 9 -24 64 -17 101 14 74 106 141 179 130 21 -3 50 -13
64 -22z"/>
<path d="M7613 9377 l-213 -241 63 -58 c34 -31 68 -56 76 -55 7 1 107 108 221
237 l208 235 -36 33 c-20 18 -53 45 -72 61 l-35 28 -212 -240z"/>
<path d="M7962 9219 l-323 -300 30 -37 c16 -20 44 -51 63 -69 l33 -32 323 300
c178 165 322 304 320 309 -3 8 -117 130 -121 130 -1 0 -147 -135 -325 -301z"/>
<path d="M2449 9207 c-122 -46 -207 -150 -217 -264 l-4 -53 -28 20 -27 19 -48
-61 c-26 -34 -48 -67 -49 -74 -1 -17 674 -548 684 -538 5 5 31 38 59 73 l51
64 -115 90 -115 91 48 18 c71 27 126 79 164 155 42 85 45 178 9 260 -28 64
-121 155 -188 185 -60 26 -173 34 -224 15z m150 -193 c100 -50 137 -152 88
-239 -49 -87 -155 -108 -240 -49 -67 47 -90 89 -85 155 5 68 35 114 92 140 55
25 83 24 145 -7z"/>
<path d="M8180 8971 c-59 -19 -110 -54 -158 -106 -81 -88 -101 -191 -64 -313
42 -134 152 -249 264 -276 25 -6 28 -3 38 31 5 21 12 54 15 73 5 34 3 36 -46
60 -63 30 -115 99 -124 164 -5 33 -2 55 14 92 12 27 25 44 30 38 4 -5 65 -94
136 -199 70 -104 130 -192 132 -194 5 -7 51 21 93 56 22 19 53 62 72 100 27
55 32 76 31 132 -1 91 -32 167 -95 237 -72 78 -132 107 -233 110 -44 2 -91 0
-105 -5z m177 -162 c62 -23 105 -86 105 -154 0 -40 -21 -97 -40 -109 -8 -5
-165 213 -178 247 -9 25 63 35 113 16z"/>
<path d="M2050 8526 c-109 -24 -185 -88 -241 -202 -32 -64 -34 -75 -34 -169 0
-92 2 -104 29 -153 35 -62 77 -102 149 -139 45 -24 64 -28 142 -28 74 0 98 4
138 23 169 84 259 314 187 479 -25 56 -94 130 -150 158 -34 17 -159 51 -164
44 -1 0 -26 -6 -56 -13z m127 -197 c113 -54 141 -174 62 -264 -37 -41 -87 -59
-143 -51 -103 17 -172 96 -164 188 12 120 131 182 245 127z"/>
<path d="M8750 7980 c-349 -95 -395 -110 -392 -126 14 -83 118 -428 145 -478
44 -83 113 -150 195 -189 60 -29 77 -32 157 -32 201 0 353 104 407 279 33 108
22 214 -45 455 -30 107 -58 196 -63 197 -5 1 -187 -46 -404 -106z m314 -137
c39 -129 57 -223 52 -271 -16 -137 -122 -224 -275 -224 -118 0 -194 69 -241
221 -16 52 -32 109 -36 126 l-6 32 239 65 c131 36 243 66 250 67 6 0 14 -7 17
-16z"/>
<path d="M1381 7888 c-19 -50 -43 -149 -38 -154 8 -8 839 -255 843 -251 6 6
54 170 51 173 -1 2 -185 57 -407 124 -223 66 -413 123 -422 126 -12 4 -21 -2
-27 -18z"/>
<path d="M1675 7453 c-142 -51 -223 -186 -213 -352 8 -129 73 -226 186 -279
49 -23 71 -27 147 -27 81 0 95 3 143 29 100 56 160 148 183 279 17 100 0 192
-47 265 l-15 22 -60 -41 c-46 -31 -59 -45 -53 -57 29 -68 35 -101 29 -147 -9
-75 -41 -126 -98 -154 -26 -13 -50 -22 -52 -20 -2 2 12 112 30 244 19 132 32
241 30 243 -2 2 -39 6 -82 8 -59 4 -90 0 -128 -13z m61 -302 c-12 -82 -24
-152 -28 -156 -13 -14 -69 27 -88 65 -44 86 -10 188 75 226 64 28 63 30 41
-135z"/>
<path d="M8779 7056 c-88 -31 -149 -89 -192 -183 -19 -41 -22 -65 -22 -163 0
-105 3 -120 27 -171 15 -30 39 -66 53 -79 l26 -24 51 52 c49 48 51 52 35 69
-70 78 -59 245 21 301 26 19 50 28 53 20 1 -2 4 -107 8 -235 3 -127 9 -235 13
-238 14 -14 118 -5 172 16 66 24 133 87 167 156 21 41 24 63 24 153 0 89 -4
112 -23 151 -36 73 -87 125 -154 158 -54 27 -71 31 -142 31 -45 -1 -97 -7
-117 -14z m238 -193 c54 -36 80 -141 49 -201 -18 -35 -54 -68 -88 -81 l-28
-11 0 93 c0 50 -3 123 -7 161 l-6 69 27 -7 c16 -4 39 -14 53 -23z"/>
<path d="M1421 6697 c3 -124 -14 -110 229 -194 118 -40 216 -76 218 -78 3 -3
-90 -50 -206 -106 l-212 -102 7 -91 c3 -50 8 -93 10 -95 2 -3 143 65 314 150
l311 154 -7 95 c-4 52 -8 96 -10 98 -2 2 -72 27 -156 57 -85 29 -232 80 -326
114 l-173 60 1 -62z"/>
<path d="M8850 6245 l-315 -72 -17 -94 c-10 -51 -14 -96 -10 -100 4 -4 136
-90 294 -192 l286 -185 16 86 c13 69 14 88 4 97 -11 10 -106 72 -322 210 -51
32 -57 39 -40 45 10 4 109 26 219 50 110 23 205 47 211 54 6 6 18 48 26 94
l15 82 -26 -1 c-14 -1 -168 -34 -341 -74z"/>
<path d="M1985 5990 l-37 -62 35 -36 c86 -88 94 -227 18 -296 -12 -11 -24 -16
-28 -12 -4 4 -35 107 -68 229 -69 254 -64 247 -161 203 -86 -40 -130 -79 -165
-153 -29 -57 -33 -75 -32 -141 1 -89 18 -145 69 -219 63 -91 150 -135 269
-134 126 1 239 70 292 179 37 77 39 204 5 302 -25 73 -81 152 -129 181 l-31
20 -37 -61z m-160 -298 c21 -78 35 -145 32 -148 -12 -13 -77 8 -108 33 -53 45
-73 124 -49 189 13 32 70 88 80 77 4 -4 24 -72 45 -151z"/>
<path d="M8549 5657 c-120 -45 -207 -148 -245 -292 -8 -27 -14 -67 -14 -88 0
-43 19 -125 30 -132 4 -2 37 7 73 22 65 26 65 26 55 55 -24 67 16 187 78 235
33 24 134 47 121 27 -6 -10 -177 -444 -177 -449 0 -2 26 -13 58 -25 74 -28
195 -25 258 7 128 67 211 237 185 379 -29 156 -154 263 -316 271 -43 2 -84 -2
-106 -10z m262 -269 c40 -78 8 -176 -71 -215 -47 -24 -100 -30 -100 -12 0 6
21 63 46 127 25 64 50 127 55 140 8 20 11 21 30 10 11 -7 29 -30 40 -50z"/>
<path d="M2007 5310 c-53 -14 -135 -57 -185 -97 -128 -105 -173 -286 -113
-457 24 -70 219 -426 233 -426 7 0 712 384 726 396 7 5 -192 358 -234 415 -80
108 -188 169 -312 175 -42 2 -94 -1 -115 -6z m186 -192 c62 -19 137 -98 195
-205 l50 -92 -166 -92 c-92 -50 -195 -107 -229 -126 l-61 -34 -46 83 c-68 125
-79 157 -79 223 -1 163 176 291 336 243z"/>
<path d="M8126 5003 c-25 -43 -42 -81 -38 -84 4 -3 175 -104 381 -223 230
-134 377 -214 383 -208 22 22 88 146 81 153 -10 9 -731 429 -748 435 -9 4 -30
-22 -59 -73z"/>
<path d="M8000 4714 c-95 -35 -178 -112 -228 -214 -23 -47 -27 -68 -27 -140 0
-73 4 -93 28 -142 32 -65 84 -116 159 -155 44 -22 66 -27 133 -27 71 -1 88 3
147 32 166 82 257 279 203 441 -21 65 -101 153 -169 188 -66 34 -179 41 -246
17z m167 -190 c85 -49 119 -162 70 -235 -70 -104 -201 -105 -286 -2 -55 67
-54 148 5 213 57 63 128 71 211 24z"/>
<path d="M7368 4417 c-37 -29 -67 -56 -67 -61 -1 -4 39 -59 89 -122 l90 -114
-48 0 c-63 0 -138 -38 -192 -96 -107 -116 -115 -263 -23 -402 120 -180 351
-204 504 -52 26 26 51 63 58 86 7 21 15 46 17 54 4 11 10 7 27 -13 l22 -27 68
56 68 56 -33 43 c-93 123 -504 644 -508 644 -3 0 -35 -23 -72 -52z m223 -452
c109 -71 118 -226 17 -293 -80 -53 -175 -28 -235 62 -54 80 -43 176 27 226 64
45 127 47 191 5z"/>
<path d="M2817 4325 c-142 -52 -252 -224 -233 -363 18 -133 153 -272 263 -272
18 0 33 -2 33 -5 0 -3 -43 -54 -95 -113 -53 -59 -97 -110 -98 -113 -3 -7 123
-119 134 -119 4 0 139 147 298 327 l291 327 -27 29 c-16 16 -45 43 -66 59
l-38 31 -24 -23 -23 -22 -7 40 c-14 87 -105 182 -204 217 -55 18 -153 18 -204
0z m214 -188 c83 -56 103 -145 50 -228 -52 -82 -143 -118 -215 -84 -78 37
-117 115 -97 193 12 45 63 105 106 127 45 23 116 19 156 -8z"/>
<path d="M3451 3871 c-13 -8 -13 -18 0 -73 l14 -63 67 -6 c122 -10 208 -85
208 -181 0 -27 -4 -48 -8 -46 -5 2 -98 54 -209 116 -110 61 -205 112 -210 112
-5 0 -23 -26 -38 -57 -37 -74 -45 -177 -20 -252 24 -72 100 -152 183 -193 59
-29 76 -33 152 -33 73 0 93 4 142 28 67 33 121 90 157 166 21 46 26 70 26 136
-1 68 -5 88 -29 134 -38 73 -108 140 -192 181 -58 29 -82 35 -149 38 -44 1
-86 -2 -94 -7z m100 -393 c71 -40 128 -77 126 -83 -2 -5 -18 -20 -37 -32 -92
-63 -240 18 -240 132 0 38 6 55 18 55 2 0 62 -33 133 -72z"/>
<path d="M6797 3750 c-67 -17 -151 -62 -200 -109 -44 -41 -87 -105 -87 -129 0
-5 24 -18 53 -30 28 -11 60 -23 70 -27 11 -5 17 -2 17 7 0 26 64 91 114 114
77 36 166 27 205 -20 12 -15 -7 -26 -203 -121 -243 -118 -230 -104 -180 -191
27 -49 78 -95 137 -126 35 -19 58 -23 132 -23 77 0 98 4 147 27 72 34 136 93
174 160 26 48 29 62 29 143 0 76 -4 99 -26 146 -54 114 -151 180 -274 185 -38
2 -87 -1 -108 -6z m243 -356 c0 -94 -77 -160 -176 -152 -43 4 -61 11 -85 34
l-31 29 139 67 c76 37 141 67 146 68 4 0 7 -21 7 -46z"/>
<path d="M6270 3536 c-41 -12 -74 -27 -74 -32 1 -5 20 -74 42 -154 57 -204 58
-241 12 -294 -19 -21 -50 -41 -81 -51 -38 -13 -49 -21 -45 -33 3 -10 12 -45
22 -79 12 -45 21 -63 33 -63 33 0 121 61 148 102 l28 41 9 -37 c8 -36 10 -37
40 -32 17 4 56 14 87 24 l56 17 -86 305 c-62 218 -90 305 -101 306 -8 1 -49
-8 -90 -20z"/>
<path d="M4013 3172 l-223 -377 73 -17 c39 -9 81 -17 92 -18 17 0 52 53 174
260 85 143 156 258 159 256 2 -3 17 -139 33 -302 16 -163 30 -298 32 -300 1
-2 41 -12 87 -23 64 -15 87 -17 92 -8 4 7 76 126 159 265 84 139 153 251 154
250 2 -2 15 -139 31 -305 23 -250 30 -304 43 -307 51 -15 173 -38 177 -34 4 5
-70 772 -81 844 -5 30 -7 31 -103 52 -53 11 -101 17 -105 12 -5 -4 -76 -120
-158 -256 -82 -137 -149 -242 -149 -234 -2 56 -58 571 -63 576 -8 8 -155 43
-182 44 -16 0 -67 -80 -242 -378z"/>
<path d="M5494 3392 c-64 -41 -71 -134 -13 -186 28 -25 37 -28 82 -23 41 4 56
10 80 37 26 29 29 38 25 82 -7 65 -39 98 -99 105 -32 3 -52 -1 -75 -15z"/>
</g>
</svg>
